<mxfile host="app.diagrams.net" modified="2023-08-18T19:10:25.546Z" agent="Mozilla/5.0 (Windows NT 10.0; Win64; x64) AppleWebKit/537.36 (KHTML, like Gecko) Chrome/115.0.0.0 Safari/537.36" version="21.6.6" etag="FS-3TMV6xjvssn2GO6b0" type="github">
  <diagram name="PÃ¡gina-1" id="z3BBzIixmL_CSQcnd3GH">
    <mxGraphModel>
      <root>
        <mxCell id="0" />
        <mxCell id="1" parent="0" />
      </root>
    </mxGraphModel>
  </diagram>
</mxfile>
